<svg width="10" height="11" viewBox="0 0 10 11" fill="none" xmlns="http://www.w3.org/2000/svg">
<path d="M9.31444 7.4992C9.27553 7.45233 9.23733 7.40545 9.19983 7.36022C8.68421 6.73655 8.37225 6.36014 8.37225 4.5946C8.37225 3.68054 8.15358 2.93054 7.72257 2.36804C7.40475 1.95249 6.97514 1.63726 6.40889 1.40429C6.40161 1.40023 6.3951 1.39492 6.38968 1.38858C6.186 0.706552 5.62866 0.249756 5.00007 0.249756C4.37147 0.249756 3.81436 0.706552 3.61069 1.38788C3.60526 1.39398 3.59884 1.39913 3.59171 1.40311C2.2703 1.9471 1.62812 2.99077 1.62812 4.59389C1.62812 6.36014 1.31663 6.73655 0.800538 7.35952C0.763038 7.40475 0.724835 7.45069 0.685929 7.4985C0.585429 7.6197 0.521754 7.76716 0.50244 7.92342C0.483126 8.07967 0.508981 8.2382 0.576945 8.38022C0.721554 8.68491 1.02976 8.87405 1.38155 8.87405H8.62116C8.97131 8.87405 9.27741 8.68514 9.42249 8.38186C9.49074 8.2398 9.51684 8.08115 9.49769 7.92471C9.47854 7.76827 9.41495 7.6206 9.31444 7.4992V7.4992Z" fill="#818E9D"/>
<path d="M4.99996 10.75C5.33864 10.7497 5.67093 10.6578 5.96159 10.4839C6.25225 10.3101 6.49044 10.0608 6.65089 9.76255C6.65845 9.74825 6.66219 9.73225 6.66173 9.71609C6.66128 9.69992 6.65665 9.68415 6.6483 9.67031C6.63995 9.65646 6.62816 9.64501 6.61408 9.63706C6.59999 9.62912 6.58409 9.62495 6.56792 9.62497H3.43246C3.41627 9.62491 3.40034 9.62905 3.38622 9.63698C3.37211 9.6449 3.36029 9.65635 3.35191 9.6702C3.34353 9.68406 3.33888 9.69984 3.33842 9.71603C3.33795 9.73221 3.34169 9.74824 3.34926 9.76255C3.50969 10.0608 3.74784 10.31 4.03846 10.4839C4.32907 10.6577 4.66132 10.7497 4.99996 10.75Z" fill="#818E9D"/>
</svg>
