<svg width="14" height="14" viewBox="0 0 14 14" fill="none" xmlns="http://www.w3.org/2000/svg">
<path d="M11.7083 2.29166C10.5 1.08333 8.84167 0.333328 7 0.333328C5.23189 0.333328 3.5362 1.03571 2.28596 2.28595C1.03571 3.53619 0.333334 5.23188 0.333334 6.99999C0.333334 8.7681 1.03571 10.4638 2.28596 11.714C3.5362 12.9643 5.23189 13.6667 7 13.6667C10.1083 13.6667 12.7 11.5417 13.4417 8.66666H11.7083C11.025 10.6083 9.175 12 7 12C5.67392 12 4.40215 11.4732 3.46447 10.5355C2.52678 9.59785 2 8.32608 2 6.99999C2 5.67391 2.52678 4.40214 3.46447 3.46446C4.40215 2.52678 5.67392 1.99999 7 1.99999C8.38333 1.99999 9.61667 2.575 10.5167 3.48333L7.83333 6.16666H13.6667V0.333328L11.7083 2.29166Z" fill="#818E9D" fill-opacity="0.4"/>
</svg>
