<svg width="10" height="12" viewBox="0 0 10 12" fill="none" xmlns="http://www.w3.org/2000/svg">
<path d="M6.79615 1.51341C6.34006 1.02099 5.70302 0.749817 4.9999 0.749817C4.29302 0.749817 3.65388 1.01935 3.1999 1.50872C2.74099 2.00349 2.5174 2.67591 2.5699 3.402C2.67396 4.8345 3.76404 5.99981 4.9999 5.99981C6.23576 5.99981 7.32396 4.83474 7.42966 3.40247C7.48287 2.68294 7.25787 2.01193 6.79615 1.51341Z" fill="#818E9D"/>
<path d="M9.12501 11.2493H0.875012C0.767027 11.2507 0.660087 11.228 0.561972 11.1829C0.463857 11.1377 0.377036 11.0713 0.307824 10.9884C0.155481 10.8063 0.0940745 10.5576 0.139543 10.3061C0.337356 9.2088 0.954699 8.287 1.92501 7.63989C2.78704 7.06544 3.87899 6.74927 5.00001 6.74927C6.12102 6.74927 7.21298 7.06567 8.07501 7.63989C9.04532 8.28677 9.66266 9.20856 9.86047 10.3059C9.90594 10.5574 9.84454 10.8061 9.69219 10.9882C9.623 11.0711 9.53619 11.1376 9.43808 11.1828C9.33996 11.2279 9.23301 11.2506 9.12501 11.2493V11.2493Z" fill="#818E9D"/>
</svg>
